<?xml version="1.0" encoding="UTF-8"?>
<!DOCTYPE svg PUBLIC "-//W3C//DTD SVG 1.1//EN" "http://www.w3.org/Graphics/SVG/1.1/DTD/svg11.dtd">
<svg xmlns="http://www.w3.org/2000/svg" version="1.1" width="398px" height="398px" style="shape-rendering:geometricPrecision; text-rendering:geometricPrecision; image-rendering:optimizeQuality; fill-rule:evenodd; clip-rule:evenodd" xmlns:xlink="http://www.w3.org/1999/xlink">
<g><path style="opacity:1" fill="#fefefe" d="M -0.5,-0.5 C 132.167,-0.5 264.833,-0.5 397.5,-0.5C 397.5,132.167 397.5,264.833 397.5,397.5C 317.167,397.5 236.833,397.5 156.5,397.5C 155.324,382.854 154.324,368.188 153.5,353.5C 153.667,350.5 153.833,347.5 154,344.5C 155.697,342.301 157.197,339.968 158.5,337.5C 159.002,336.479 159.668,336.312 160.5,337C 165.554,342.054 170.554,347.054 175.5,352C 179.375,353.52 183.375,353.854 187.5,353C 196,345.833 203.833,338 211,329.5C 217.636,321.191 224.303,312.858 231,304.5C 231.684,303.216 231.517,302.049 230.5,301C 234.086,299.892 237.753,299.392 241.5,299.5C 255.238,296.593 263.904,288.426 267.5,275C 263.384,266.985 258.051,266.319 251.5,273C 247.246,274.314 242.913,275.147 238.5,275.5C 239.793,271.616 240.459,267.616 240.5,263.5C 239.294,260.861 237.294,260.028 234.5,261C 232.126,266.911 228.626,272.078 224,276.5C 222.438,278.957 221.438,281.624 221,284.5C 219.333,285.833 217.667,287.167 216,288.5C 214.274,287.424 212.441,287.257 210.5,288C 201.5,298.5 192.5,309 183.5,319.5C 175.378,308.756 167.378,297.922 159.5,287C 162.039,284.63 164.372,282.13 166.5,279.5C 171.834,273.161 175.334,265.828 177,257.5C 177.667,241.167 177.667,224.833 177,208.5C 176.474,199.315 174.974,190.315 172.5,181.5C 177.15,174.154 178.65,166.154 177,157.5C 173.956,152.377 171.289,147.044 169,141.5C 167.333,139.833 165.667,138.167 164,136.5C 159.767,121.36 150.767,110.027 137,102.5C 132.644,91.8934 124.811,85.3934 113.5,83C 96.1485,78.8399 79.1485,79.8399 62.5,86C 51.6678,92.332 49.0012,101.165 54.5,112.5C 52.0456,116.065 50.879,120.065 51,124.5C 48.4728,128.221 46.4728,132.221 45,136.5C 43.7797,145.774 43.113,155.107 43,164.5C 39.7322,168.687 37.8989,173.354 37.5,178.5C 37.9608,187.544 38.7941,196.544 40,205.5C 41.1376,209.448 43.471,212.448 47,214.5C 46.8923,230.976 49.559,246.976 55,262.5C 57.564,268.984 61.564,274.318 67,278.5C 67.3333,277.5 67.6667,276.5 68,275.5C 69.5,277 71,278.5 72.5,280C 70.6217,281.543 69.1217,283.376 68,285.5C 61.3079,307.101 55.4746,328.935 50.5,351C 55.6845,366.383 60.3511,381.883 64.5,397.5C 42.8333,397.5 21.1667,397.5 -0.5,397.5C -0.5,264.833 -0.5,132.167 -0.5,-0.5 Z"/></g>
<g><path style="opacity:1" fill="#160e0d" d="M 166.5,279.5 C 165.489,276.982 164.156,276.982 162.5,279.5C 161.201,278.91 160.368,277.91 160,276.5C 159.329,277.252 158.496,277.586 157.5,277.5C 158.811,275.664 159.978,273.664 161,271.5C 162.211,264.779 163.544,258.112 165,251.5C 165.191,253.708 165.691,255.708 166.5,257.5C 165.563,262.854 165.563,268.188 166.5,273.5C 168.666,269.544 170.832,265.544 173,261.5C 174.958,240.822 174.791,220.156 172.5,199.5C 172.014,193.617 170.681,187.95 168.5,182.5C 167.549,181.674 166.549,181.508 165.5,182C 167.944,195.718 168.611,209.552 167.5,223.5C 165.69,228.601 164.19,233.934 163,239.5C 160.085,243.653 158.751,248.32 159,253.5C 158.692,252.692 158.192,252.025 157.5,251.5C 152.716,258.622 146.716,264.289 139.5,268.5C 138.5,268.5 137.5,268.5 136.5,268.5C 129.193,270.125 129.193,272.791 136.5,276.5C 137.776,277.614 137.776,278.614 136.5,279.5C 130.608,278.441 127.274,274.941 126.5,269C 117.943,268.148 110.109,265.314 103,260.5C 101.99,268.007 102.49,275.34 104.5,282.5C 104.796,284.403 105.463,286.07 106.5,287.5C 107.626,288.858 107.626,290.192 106.5,291.5C 102.021,289.76 97.6874,287.76 93.5,285.5C 93.189,284.522 92.5223,283.855 91.5,283.5C 90.1585,285.005 88.4918,285.672 86.5,285.5C 83.3016,284.32 80.1349,282.986 77,281.5C 75.3435,282.484 73.6768,283.484 72,284.5C 64.4275,307.454 58.7608,330.788 55,354.5C 60.0182,368.719 64.5182,383.052 68.5,397.5C 67.1667,397.5 65.8333,397.5 64.5,397.5C 60.3511,381.883 55.6845,366.383 50.5,351C 55.4746,328.935 61.3079,307.101 68,285.5C 69.1217,283.376 70.6217,281.543 72.5,280C 71,278.5 69.5,277 68,275.5C 67.6667,276.5 67.3333,277.5 67,278.5C 61.564,274.318 57.564,268.984 55,262.5C 49.559,246.976 46.8923,230.976 47,214.5C 43.471,212.448 41.1376,209.448 40,205.5C 38.7941,196.544 37.9608,187.544 37.5,178.5C 37.8989,173.354 39.7322,168.687 43,164.5C 43.113,155.107 43.7797,145.774 45,136.5C 46.4728,132.221 48.4728,128.221 51,124.5C 50.879,120.065 52.0456,116.065 54.5,112.5C 49.0012,101.165 51.6678,92.332 62.5,86C 79.1485,79.8399 96.1485,78.8399 113.5,83C 124.811,85.3934 132.644,91.8934 137,102.5C 150.767,110.027 159.767,121.36 164,136.5C 165.667,138.167 167.333,139.833 169,141.5C 171.289,147.044 173.956,152.377 177,157.5C 178.65,166.154 177.15,174.154 172.5,181.5C 174.974,190.315 176.474,199.315 177,208.5C 177.667,224.833 177.667,241.167 177,257.5C 175.334,265.828 171.834,273.161 166.5,279.5 Z"/></g>
<g><path style="opacity:1" fill="#421713" d="M 90.5,188.5 C 90.2155,186.585 90.5489,184.919 91.5,183.5C 91.4346,183.938 91.6012,184.272 92,184.5C 95.0883,179.789 99.4216,177.789 105,178.5C 109.969,178.561 114.803,179.394 119.5,181C 120.973,181.71 121.64,182.876 121.5,184.5C 114.202,183.441 106.869,183.274 99.5,184C 96.1943,184.986 93.1943,186.486 90.5,188.5 Z"/></g>
<g><path style="opacity:1" fill="#371111" d="M 43.5,171.5 C 42.3034,174.715 42.9701,177.382 45.5,179.5C 44.2651,181.957 42.2651,183.29 39.5,183.5C 39.1866,180.753 39.52,178.086 40.5,175.5C 41.0568,173.668 42.0568,172.335 43.5,171.5 Z"/></g>
<g><path style="opacity:1" fill="#401310" d="M 159.5,176.5 C 160.537,177.93 161.204,179.597 161.5,181.5C 153.058,178.71 144.725,179.043 136.5,182.5C 135.833,182.167 135.167,181.833 134.5,181.5C 141.839,174.916 150.173,173.249 159.5,176.5 Z"/></g>
<g><path style="opacity:1" fill="#350c0b" d="M 51.5,162.5 C 52.742,171.139 54.242,179.805 56,188.5C 57.6924,190.359 59.1924,192.359 60.5,194.5C 61.325,195.386 62.325,195.719 63.5,195.5C 62.5977,197.341 61.2644,198.674 59.5,199.5C 59.6567,198.127 59.49,196.793 59,195.5C 56.5964,193.693 54.9297,191.359 54,188.5C 52.3161,180.778 50.8161,173.112 49.5,165.5C 50.1667,164.5 50.8333,163.5 51.5,162.5 Z"/></g>
<g><path style="opacity:1" fill="#791324" d="M 61.5,153.5 C 62.6935,153.97 63.3601,154.97 63.5,156.5C 64.5951,163.611 66.0951,170.611 68,177.5C 69.2433,180.576 71.0767,183.243 73.5,185.5C 69.7794,188.377 66.446,191.711 63.5,195.5C 62.325,195.719 61.325,195.386 60.5,194.5C 59.1924,192.359 57.6924,190.359 56,188.5C 54.242,179.805 52.742,171.139 51.5,162.5C 51.5,161.5 51.5,160.5 51.5,159.5C 55.3579,158.295 58.6913,156.295 61.5,153.5 Z"/></g>
<g><path style="opacity:1" fill="#6e1522" d="M 169.5,151.5 C 171.097,152.737 172.263,154.404 173,156.5C 174.099,164.049 173.433,171.383 171,178.5C 169.244,179.985 168.077,179.652 167.5,177.5C 169.19,172.892 170.19,168.058 170.5,163C 170.11,159.165 169.777,155.332 169.5,151.5 Z"/></g>
<g><path style="opacity:1" fill="#340c0a" d="M 166.5,149.5 C 168.179,149.285 169.179,149.952 169.5,151.5C 169.777,155.332 170.11,159.165 170.5,163C 170.19,168.058 169.19,172.892 167.5,177.5C 166.732,176.737 166.232,175.737 166,174.5C 164.539,175.883 163.706,175.549 163.5,173.5C 166.766,173.567 168.266,171.901 168,168.5C 168.407,162.092 167.907,155.759 166.5,149.5 Z"/></g>
<g><path style="opacity:1" fill="#340e0d" d="M 91.5,135.5 C 89.6281,137.453 87.2947,138.953 84.5,140C 85.2797,141.073 85.113,142.24 84,143.5C 83.1835,150.968 83.8502,158.301 86,165.5C 87.9019,167.884 89.0686,170.551 89.5,173.5C 88.2058,172.71 87.0391,171.71 86,170.5C 84.3083,167.447 82.975,164.447 82,161.5C 81.4503,154.447 81.4503,147.447 82,140.5C 76.9519,143.872 71.7853,146.872 66.5,149.5C 66.4123,160.26 68.2457,170.593 72,180.5C 73.129,182.141 74.629,183.141 76.5,183.5C 76.0269,184.906 75.0269,185.573 73.5,185.5C 71.0767,183.243 69.2433,180.576 68,177.5C 66.0951,170.611 64.5951,163.611 63.5,156.5C 63.3601,154.97 62.6935,153.97 61.5,153.5C 62.5736,152.115 63.9069,150.949 65.5,150C 64.9056,149.536 64.2389,149.369 63.5,149.5C 63.3285,147.508 63.9951,145.842 65.5,144.5C 70.9036,143.734 75.9036,141.9 80.5,139C 80.1667,138.667 79.8333,138.333 79.5,138C 83.5937,137.443 87.5937,136.61 91.5,135.5 Z"/></g>
<g><path style="opacity:1" fill="#7a1323" d="M 151.5,134.5 C 151.5,135.167 151.5,135.833 151.5,136.5C 155.243,145.774 156.409,155.441 155,165.5C 153.855,165.619 152.688,165.952 151.5,166.5C 148.509,165.629 145.509,164.629 142.5,163.5C 144.827,152.486 143.16,142.152 137.5,132.5C 138.5,132.167 139.5,131.833 140.5,131.5C 144.054,132.817 147.721,133.817 151.5,134.5 Z"/></g>
<g><path style="opacity:1" fill="#781424" d="M 89.5,173.5 C 85.5249,177.122 81.1916,180.455 76.5,183.5C 74.629,183.141 73.129,182.141 72,180.5C 68.2457,170.593 66.4123,160.26 66.5,149.5C 71.7853,146.872 76.9519,143.872 82,140.5C 81.4503,147.447 81.4503,154.447 82,161.5C 82.975,164.447 84.3083,167.447 86,170.5C 87.0391,171.71 88.2058,172.71 89.5,173.5 Z"/></g>
<g><path style="opacity:1" fill="#1e0705" d="M 63.5,149.5 C 64.2389,149.369 64.9056,149.536 65.5,150C 63.9069,150.949 62.5736,152.115 61.5,153.5C 58.6913,156.295 55.3579,158.295 51.5,159.5C 51.369,158.761 51.5357,158.094 52,157.5C 54.8437,155.841 57.3437,153.841 59.5,151.5C 60.6049,150.4 61.9382,149.733 63.5,149.5 Z"/></g>
<g><path style="opacity:1" fill="#771524" d="M 154.5,135.5 C 157.373,137.103 160.373,138.436 163.5,139.5C 163.739,141.467 163.406,143.301 162.5,145C 163.699,146.694 165.032,148.194 166.5,149.5C 167.907,155.759 168.407,162.092 168,168.5C 168.266,171.901 166.766,173.567 163.5,173.5C 161.813,171.834 159.813,170.5 157.5,169.5C 158.504,158.304 157.171,147.471 153.5,137C 153.57,136.235 153.903,135.735 154.5,135.5 Z"/></g>
<g><path style="opacity:1" fill="#5e141c" d="M 49.5,135.5 C 48.8085,140.883 48.8085,146.217 49.5,151.5C 52.8333,151.5 56.1667,151.5 59.5,151.5C 57.3437,153.841 54.8437,155.841 52,157.5C 51.5357,158.094 51.369,158.761 51.5,159.5C 49.7988,159.966 48.2988,159.966 47,159.5C 46.3333,154.167 46.3333,148.833 47,143.5C 46.9467,140.325 47.78,137.658 49.5,135.5 Z"/></g>
<g><path style="opacity:1" fill="#781322" d="M 133.5,129.5 C 134.869,130.968 136.036,132.635 137,134.5C 138.262,138.92 139.595,143.253 141,147.5C 141.609,152.861 141.442,158.195 140.5,163.5C 135.5,163.5 130.5,163.5 125.5,163.5C 126.575,151.846 124.575,140.846 119.5,130.5C 124.12,129.507 128.786,129.173 133.5,129.5 Z"/></g>
<g><path style="opacity:1" fill="#320c0b" d="M 154.5,135.5 C 153.903,135.735 153.57,136.235 153.5,137C 157.171,147.471 158.504,158.304 157.5,169.5C 155.456,168.478 153.456,167.478 151.5,166.5C 152.688,165.952 153.855,165.619 155,165.5C 156.409,155.441 155.243,145.774 151.5,136.5C 152.151,135.909 152.818,135.243 153.5,134.5C 154.107,134.624 154.44,134.957 154.5,135.5 Z"/></g>
<g><path style="opacity:1" fill="#2c0b08" d="M 133.5,129.5 C 140.601,129.346 147.268,130.679 153.5,133.5C 152.508,133.328 151.842,133.662 151.5,134.5C 147.721,133.817 144.054,132.817 140.5,131.5C 139.5,131.833 138.5,132.167 137.5,132.5C 143.16,142.152 144.827,152.486 142.5,163.5C 141.833,163.5 141.167,163.5 140.5,163.5C 141.442,158.195 141.609,152.861 141,147.5C 139.595,143.253 138.262,138.92 137,134.5C 136.036,132.635 134.869,130.968 133.5,129.5 Z"/></g>
<g><path style="opacity:1" fill="#781322" d="M 91.5,135.5 C 94.1667,135.5 96.8333,135.5 99.5,135.5C 100.247,146.471 102.247,157.137 105.5,167.5C 100.167,169.5 94.8333,171.5 89.5,173.5C 89.0686,170.551 87.9019,167.884 86,165.5C 83.8502,158.301 83.1835,150.968 84,143.5C 85.113,142.24 85.2797,141.073 84.5,140C 87.2947,138.953 89.6281,137.453 91.5,135.5 Z"/></g>
<g><path style="opacity:1" fill="#791424" d="M 123.5,149.5 C 123.5,154.167 123.5,158.833 123.5,163.5C 119.5,164.167 115.5,164.833 111.5,165.5C 110.167,165.5 108.833,165.5 107.5,165.5C 103.572,155.273 101.572,144.606 101.5,133.5C 107.019,131.711 112.685,131.211 118.5,132C 120.477,137.356 122.144,143.19 123.5,149.5 Z"/></g>
<g><path style="opacity:1" fill="#300f0e" d="M 133.5,129.5 C 128.786,129.173 124.12,129.507 119.5,130.5C 124.575,140.846 126.575,151.846 125.5,163.5C 124.833,158.833 124.167,154.167 123.5,149.5C 122.144,143.19 120.477,137.356 118.5,132C 112.685,131.211 107.019,131.711 101.5,133.5C 101.572,144.606 103.572,155.273 107.5,165.5C 108.833,165.5 110.167,165.5 111.5,165.5C 109.698,166.458 107.698,167.125 105.5,167.5C 102.247,157.137 100.247,146.471 99.5,135.5C 96.8333,135.5 94.1667,135.5 91.5,135.5C 93.1209,133.883 95.1209,132.716 97.5,132C 106.428,129.843 115.428,128.343 124.5,127.5C 127.913,127.517 130.913,128.184 133.5,129.5 Z"/></g>
<g><path style="opacity:1" fill="#330b0a" d="M 65.5,107.5 C 65.1413,112.38 63.9746,117.047 62,121.5C 61.8313,128.856 61.3313,136.189 60.5,143.5C 57.8355,135.491 57.8355,127.491 60.5,119.5C 59.6522,118.375 58.6522,118.375 57.5,119.5C 58.5521,117.744 60.2188,117.077 62.5,117.5C 62.5,114.833 62.5,112.167 62.5,109.5C 63.2223,108.449 64.2223,107.782 65.5,107.5 Z"/></g>
<g><path style="opacity:1" fill="#6c1723" d="M 62.5,109.5 C 62.5,112.167 62.5,114.833 62.5,117.5C 60.2188,117.077 58.5521,117.744 57.5,119.5C 56.4138,119.38 55.7472,118.713 55.5,117.5C 56.9253,113.945 59.2586,111.278 62.5,109.5 Z"/></g>
<g><path style="opacity:1" fill="#751322" d="M 63.5,89.5 C 63.5,94.8333 63.5,100.167 63.5,105.5C 61.2335,106.92 59.0669,108.587 57,110.5C 55.886,108.03 55.386,105.364 55.5,102.5C 55.0805,96.1345 57.7472,91.8012 63.5,89.5 Z"/></g>
<g><path style="opacity:1" fill="#2f0c0a" d="M 67.5,87.5 C 65.6674,92.6082 65.0008,97.9415 65.5,103.5C 69.0595,103.717 69.0595,104.717 65.5,106.5C 65.1583,105.662 64.4916,105.328 63.5,105.5C 63.5,100.167 63.5,94.8333 63.5,89.5C 64.287,87.8958 65.6203,87.2291 67.5,87.5 Z"/></g>
<g><path style="opacity:1" fill="#7a1324" d="M 153.5,133.5 C 147.268,130.679 140.601,129.346 133.5,129.5C 130.913,128.184 127.913,127.517 124.5,127.5C 115.428,128.343 106.428,129.843 97.5,132C 95.1209,132.716 93.1209,133.883 91.5,135.5C 87.5937,136.61 83.5937,137.443 79.5,138C 79.8333,138.333 80.1667,138.667 80.5,139C 75.9036,141.9 70.9036,143.734 65.5,144.5C 63.9951,145.842 63.3285,147.508 63.5,149.5C 61.9382,149.733 60.6049,150.4 59.5,151.5C 56.1667,151.5 52.8333,151.5 49.5,151.5C 48.8085,146.217 48.8085,140.883 49.5,135.5C 51.1705,128.824 54.8372,123.49 60.5,119.5C 57.8355,127.491 57.8355,135.491 60.5,143.5C 61.3313,136.189 61.8313,128.856 62,121.5C 63.9746,117.047 65.1413,112.38 65.5,107.5C 65.5,107.167 65.5,106.833 65.5,106.5C 69.0595,104.717 69.0595,103.717 65.5,103.5C 65.0008,97.9415 65.6674,92.6082 67.5,87.5C 82.62,82.7557 97.9534,82.2557 113.5,86C 117.984,87.7429 122.317,89.7429 126.5,92C 130.386,95.0189 131.386,98.5189 129.5,102.5C 143.486,108.486 153.486,118.486 159.5,132.5C 157.604,133.466 155.604,133.799 153.5,133.5 Z"/></g>
<g><path style="opacity:1" fill="#370c0b" d="M 106.5,88.5 C 108.631,90.8495 108.965,93.5162 107.5,96.5C 110.145,97.1919 112.645,98.1919 115,99.5C 115.165,101.678 114.332,103.511 112.5,105C 114.167,105.333 115.833,105.667 117.5,106C 117.167,106.333 116.833,106.667 116.5,107C 120.287,109.111 121.787,112.278 121,116.5C 119.868,114.661 119.035,112.661 118.5,110.5C 116.316,108.908 113.982,107.574 111.5,106.5C 111.167,105.833 110.833,105.167 110.5,104.5C 111.5,103.167 112.5,101.833 113.5,100.5C 110.988,99.2054 108.321,98.5387 105.5,98.5C 106.207,95.2139 106.54,91.8806 106.5,88.5 Z"/></g>
<g><path style="opacity:1" fill="#771424" d="M 49.5,165.5 C 50.8161,173.112 52.3161,180.778 54,188.5C 54.9297,191.359 56.5964,193.693 59,195.5C 59.49,196.793 59.6567,198.127 59.5,199.5C 57.4307,201.292 56.0974,203.626 55.5,206.5C 51.2462,205.415 48.4129,202.748 47,198.5C 45.6746,193.599 45.1746,188.599 45.5,183.5C 45.9156,181.248 47.249,179.748 49.5,179C 49.273,177.865 48.9396,176.698 48.5,175.5C 47.0656,176.588 46.0656,177.922 45.5,179.5C 42.9701,177.382 42.3034,174.715 43.5,171.5C 43.8707,168.108 45.5374,165.442 48.5,163.5C 49.2975,163.957 49.6309,164.624 49.5,165.5 Z"/></g>
<g><path style="opacity:1" fill="#80512b" d="M 90.5,276.5 C 91.2121,274.206 90.3787,272.206 88,270.5C 84.3436,263.03 81.177,255.363 78.5,247.5C 78.1667,248.167 77.8333,248.833 77.5,249.5C 78.5007,257.798 79.8341,265.798 81.5,273.5C 81.2528,274.713 80.5862,275.38 79.5,275.5C 78.1667,275.5 76.8333,275.5 75.5,275.5C 75.5,274.167 75.5,272.833 75.5,271.5C 73.8762,271.64 72.7096,270.973 72,269.5C 71.3333,270.167 70.6667,270.833 70,271.5C 68.0334,268.146 66.2001,264.813 64.5,261.5C 62.9724,255.416 61.139,249.416 59,243.5C 58.9028,249.353 58.7361,255.02 58.5,260.5C 52.2804,245.953 49.7804,230.619 51,214.5C 55.8412,210.521 60.0079,205.855 63.5,200.5C 68.3481,195.485 73.3481,190.652 78.5,186C 81.7109,184.199 85.0442,182.699 88.5,181.5C 85.7986,216.655 90.132,250.822 101.5,284C 101.167,284.5 100.833,285 100.5,285.5C 99.4096,284.273 98.0762,283.44 96.5,283C 95.6634,281.989 95.33,280.822 95.5,279.5C 93.0107,279.759 91.344,278.759 90.5,276.5 Z"/></g>
<g><path style="opacity:1" fill="#360d0d" d="M 45.5,183.5 C 45.1746,188.599 45.6746,193.599 47,198.5C 48.4129,202.748 51.2462,205.415 55.5,206.5C 54.2147,207.785 52.8814,209.119 51.5,210.5C 49.3348,211.751 48.0015,211.751 47.5,210.5C 48.9221,210.25 49.9221,209.417 50.5,208C 46.7577,202.327 43.7577,196.827 41.5,191.5C 43.3268,189.027 44.6602,186.361 45.5,183.5 Z"/></g>
<g><path style="opacity:1" fill="#771524" d="M 41.5,191.5 C 43.7577,196.827 46.7577,202.327 50.5,208C 49.9221,209.417 48.9221,210.25 47.5,210.5C 42.9342,205.13 40.9342,198.797 41.5,191.5 Z"/></g>
<g><path style="opacity:1" fill="#f9cfb9" d="M 159.5,176.5 C 150.173,173.249 141.839,174.916 134.5,181.5C 135.167,181.833 135.833,182.167 136.5,182.5C 144.725,179.043 153.058,178.71 161.5,181.5C 163.852,189.114 165.186,196.947 165.5,205C 164.984,221.869 160.817,237.702 153,252.5C 145.16,264.337 134.327,268.504 120.5,265C 111.503,262.669 103.503,258.502 96.5,252.5C 92.1581,231.406 90.1581,210.073 90.5,188.5C 93.1943,186.486 96.1943,184.986 99.5,184C 106.869,183.274 114.202,183.441 121.5,184.5C 121.64,182.876 120.973,181.71 119.5,181C 114.803,179.394 109.969,178.561 105,178.5C 99.4216,177.789 95.0883,179.789 92,184.5C 91.6012,184.272 91.4346,183.938 91.5,183.5C 91.2436,181.208 91.5769,179.041 92.5,177C 109.659,166.456 127.992,163.456 147.5,168C 152.84,169.206 156.84,172.039 159.5,176.5 Z"/></g>
<g><path style="opacity:1" fill="#7d7875" d="M 103.5,205.5 C 106.167,205.5 108.833,205.5 111.5,205.5C 109.167,206.167 106.833,206.833 104.5,207.5C 103.508,207.672 102.842,207.338 102.5,206.5C 103.167,206.5 103.5,206.167 103.5,205.5 Z"/></g>
<g><path style="opacity:1" fill="#231714" d="M 104.5,207.5 C 106.833,206.833 109.167,206.167 111.5,205.5C 120.716,204.524 122.383,200.691 116.5,194C 114.866,193.506 113.199,193.34 111.5,193.5C 109.833,193.5 108.167,193.5 106.5,193.5C 105.5,193.5 104.5,193.5 103.5,193.5C 102.508,193.328 101.842,193.662 101.5,194.5C 95.1718,195.653 94.1718,198.486 98.5,203C 100.078,204.094 101.745,204.928 103.5,205.5C 103.5,206.167 103.167,206.5 102.5,206.5C 98.3155,204.991 94.9822,202.324 92.5,198.5C 97.1188,192.461 103.286,189.794 111,190.5C 114.235,190.582 117.402,191.082 120.5,192C 119.692,192.308 119.025,192.808 118.5,193.5C 121.036,196.184 122.036,199.184 121.5,202.5C 116.581,206.482 110.914,208.149 104.5,207.5 Z"/></g>
<g><path style="opacity:1" fill="#7cabc4" d="M 103.5,193.5 C 103.557,194.609 103.89,195.609 104.5,196.5C 103.355,197.793 103.689,198.959 105.5,200C 109.088,200.611 110.254,199.111 109,195.5C 108.23,194.402 107.397,194.402 106.5,195.5C 106.5,194.833 106.5,194.167 106.5,193.5C 108.167,193.5 109.833,193.5 111.5,193.5C 113.822,198.656 112.322,201.99 107,203.5C 101.567,202.628 99.7338,199.628 101.5,194.5C 101.842,193.662 102.508,193.328 103.5,193.5 Z"/></g>
<g><path style="opacity:1" fill="#79a9c1" d="M 154.5,190.5 C 152.766,192.322 151.766,194.655 151.5,197.5C 147.026,200.546 143.693,199.546 141.5,194.5C 142.127,193.583 142.461,192.583 142.5,191.5C 142.842,190.662 143.508,190.328 144.5,190.5C 144.557,191.609 144.89,192.609 145.5,193.5C 144.45,193.905 144.45,194.571 145.5,195.5C 149.014,197.265 150.514,196.265 150,192.5C 149.329,191.748 148.496,191.414 147.5,191.5C 147.5,191.167 147.5,190.833 147.5,190.5C 149.941,189.244 152.274,189.244 154.5,190.5 Z"/></g>
<g><path style="opacity:1" fill="#f4f4f2" d="M 111.5,193.5 C 113.199,193.34 114.866,193.506 116.5,194C 122.383,200.691 120.716,204.524 111.5,205.5C 108.833,205.5 106.167,205.5 103.5,205.5C 101.745,204.928 100.078,204.094 98.5,203C 94.1718,198.486 95.1718,195.653 101.5,194.5C 99.7338,199.628 101.567,202.628 107,203.5C 112.322,201.99 113.822,198.656 111.5,193.5 Z"/></g>
<g><path style="opacity:1" fill="#141416" d="M 104.5,196.5 C 105.492,196.672 106.158,196.338 106.5,195.5C 107.397,194.402 108.23,194.402 109,195.5C 110.254,199.111 109.088,200.611 105.5,200C 103.689,198.959 103.355,197.793 104.5,196.5 Z"/></g>
<g><path style="opacity:1" fill="#f5f6f6" d="M 103.5,193.5 C 104.5,193.5 105.5,193.5 106.5,193.5C 106.5,194.167 106.5,194.833 106.5,195.5C 106.158,196.338 105.492,196.672 104.5,196.5C 103.89,195.609 103.557,194.609 103.5,193.5 Z"/></g>
<g><path style="opacity:1" fill="#f2f3f2" d="M 154.5,190.5 C 156.929,190.585 158.929,191.585 160.5,193.5C 155.999,202.274 148.999,204.941 139.5,201.5C 138.699,199.958 138.366,198.292 138.5,196.5C 138.79,193.873 140.124,192.206 142.5,191.5C 142.461,192.583 142.127,193.583 141.5,194.5C 143.693,199.546 147.026,200.546 151.5,197.5C 151.766,194.655 152.766,192.322 154.5,190.5 Z"/></g>
<g><path style="opacity:1" fill="#261a17" d="M 139.5,202.5 C 139.5,202.167 139.5,201.833 139.5,201.5C 148.999,204.941 155.999,202.274 160.5,193.5C 158.929,191.585 156.929,190.585 154.5,190.5C 152.274,189.244 149.941,189.244 147.5,190.5C 146.5,190.5 145.5,190.5 144.5,190.5C 143.508,190.328 142.842,190.662 142.5,191.5C 140.124,192.206 138.79,193.873 138.5,196.5C 137.875,194.466 137.541,192.466 137.5,190.5C 139.148,189.073 141.148,188.24 143.5,188C 147.5,187.333 151.5,187.333 155.5,188C 163.027,190.13 164.194,193.963 159,199.5C 153.146,204.761 146.646,205.761 139.5,202.5 Z"/></g>
<g><path style="opacity:1" fill="#16171a" d="M 147.5,191.5 C 148.496,191.414 149.329,191.748 150,192.5C 150.514,196.265 149.014,197.265 145.5,195.5C 144.45,194.571 144.45,193.905 145.5,193.5C 146.833,193.5 147.5,192.833 147.5,191.5 Z"/></g>
<g><path style="opacity:1" fill="#ececeb" d="M 144.5,190.5 C 145.5,190.5 146.5,190.5 147.5,190.5C 147.5,190.833 147.5,191.167 147.5,191.5C 147.5,192.833 146.833,193.5 145.5,193.5C 144.89,192.609 144.557,191.609 144.5,190.5 Z"/></g>
<g><path style="opacity:1" fill="#7d5033" d="M 137.5,190.5 C 137.541,192.466 137.875,194.466 138.5,196.5C 138.366,198.292 138.699,199.958 139.5,201.5C 139.5,201.833 139.5,202.167 139.5,202.5C 140.493,207.313 141.993,211.98 144,216.5C 145.583,223.43 142.749,227.097 135.5,227.5C 133.97,227.36 132.97,226.693 132.5,225.5C 137.489,226.609 141.156,224.942 143.5,220.5C 140.027,211.748 137.361,202.748 135.5,193.5C 135.64,191.97 136.307,190.97 137.5,190.5 Z"/></g>
<g><path style="opacity:1" fill="#815330" d="M 166.5,257.5 C 167.356,246.19 167.69,234.857 167.5,223.5C 168.611,209.552 167.944,195.718 165.5,182C 166.549,181.508 167.549,181.674 168.5,182.5C 170.681,187.95 172.014,193.617 172.5,199.5C 174.791,220.156 174.958,240.822 173,261.5C 170.832,265.544 168.666,269.544 166.5,273.5C 165.563,268.188 165.563,262.854 166.5,257.5 Z"/></g>
<g><path style="opacity:1" fill="#815437" d="M 132.5,225.5 C 129.18,224.471 125.846,224.305 122.5,225C 119.355,222.932 118.855,220.432 121,217.5C 121.251,219.433 121.751,221.266 122.5,223C 125.5,223.333 128.5,223.667 131.5,224C 132.056,224.383 132.389,224.883 132.5,225.5 Z"/></g>
<g><path style="opacity:1" fill="#b39589" d="M 144.5,233.5 C 141.097,234.925 137.43,235.758 133.5,236C 125.988,236.822 118.655,236.655 111.5,235.5C 122.435,234.131 133.435,233.465 144.5,233.5 Z"/></g>
<g><path style="opacity:1" fill="#170f0f" d="M 144.5,242.5 C 134.473,247.792 124.473,247.792 114.5,242.5C 112.854,240.188 110.854,238.188 108.5,236.5C 109.325,235.614 110.325,235.281 111.5,235.5C 118.655,236.655 125.988,236.822 133.5,236C 137.43,235.758 141.097,234.925 144.5,233.5C 146.143,233.52 147.476,232.853 148.5,231.5C 149.5,231.833 150.167,232.5 150.5,233.5C 148.242,236.357 146.242,239.357 144.5,242.5 Z"/></g>
<g><path style="opacity:1" fill="#dfdfdd" d="M 143.5,235.5 C 144.552,235.351 145.552,235.517 146.5,236C 144.347,240.154 141.014,242.82 136.5,244C 127.359,246.125 119.359,244.125 112.5,238C 118.805,238.424 125.138,238.424 131.5,238C 135.736,237.665 139.736,236.832 143.5,235.5 Z"/></g>
<g><path style="opacity:1" fill="#d7ad9d" d="M 114.5,242.5 C 124.473,247.792 134.473,247.792 144.5,242.5C 144.415,244.929 143.415,246.929 141.5,248.5C 130.669,253.868 121.669,251.868 114.5,242.5 Z"/></g>
<g><path style="opacity:1" fill="#5f3213" d="M 64.5,261.5 C 63.3054,261.866 62.6387,262.699 62.5,264C 63.4091,265.789 63.5758,267.623 63,269.5C 60.7974,266.813 59.2974,263.813 58.5,260.5C 58.7361,255.02 58.9028,249.353 59,243.5C 61.139,249.416 62.9724,255.416 64.5,261.5 Z"/></g>
<g><path style="opacity:1" fill="#633414" d="M 167.5,223.5 C 167.69,234.857 167.356,246.19 166.5,257.5C 165.691,255.708 165.191,253.708 165,251.5C 163.544,258.112 162.211,264.779 161,271.5C 159.978,273.664 158.811,275.664 157.5,277.5C 155.896,274.597 154.896,271.263 154.5,267.5C 152.588,269.657 150.921,271.991 149.5,274.5C 148.675,275.386 147.675,275.719 146.5,275.5C 145.778,274.449 144.778,273.782 143.5,273.5C 142.25,271.846 140.916,270.179 139.5,268.5C 146.716,264.289 152.716,258.622 157.5,251.5C 158.192,252.025 158.692,252.692 159,253.5C 158.751,248.32 160.085,243.653 163,239.5C 164.19,233.934 165.69,228.601 167.5,223.5 Z"/></g>
<g><path style="opacity:1" fill="#673712" d="M 90.5,276.5 C 87.7169,273.597 85.3836,269.931 83.5,265.5C 83.1667,266.333 82.8333,267.167 82.5,268C 82.7229,271.773 83.7229,275.273 85.5,278.5C 81.8573,280.395 79.8573,279.395 79.5,275.5C 80.5862,275.38 81.2528,274.713 81.5,273.5C 79.8341,265.798 78.5007,257.798 77.5,249.5C 77.8333,248.833 78.1667,248.167 78.5,247.5C 81.177,255.363 84.3436,263.03 88,270.5C 90.3787,272.206 91.2121,274.206 90.5,276.5 Z"/></g>
<g><path style="opacity:1" fill="#f8cfb9" d="M 136.5,279.5 C 137.441,284.07 137.774,288.737 137.5,293.5C 136.778,293.918 136.278,294.584 136,295.5C 135.301,300.388 134.801,305.055 134.5,309.5C 133.641,316.445 131.308,317.111 127.5,311.5C 127.874,308.028 126.874,305.028 124.5,302.5C 123.893,302.624 123.56,302.957 123.5,303.5C 121.983,303.489 120.816,302.823 120,301.5C 120.771,299.82 120.605,298.153 119.5,296.5C 118.797,294.284 117.464,292.451 115.5,291C 111.442,288.642 107.775,285.808 104.5,282.5C 102.49,275.34 101.99,268.007 103,260.5C 110.109,265.314 117.943,268.148 126.5,269C 127.274,274.941 130.608,278.441 136.5,279.5 Z"/></g>
<g><path style="opacity:1" fill="#f6cdb8" d="M 238.5,264.5 C 236.617,271.451 234.95,278.451 233.5,285.5C 234.167,286.833 234.833,286.833 235.5,285.5C 237.055,283.057 237.722,280.39 237.5,277.5C 245.978,277.785 253.645,275.451 260.5,270.5C 261.308,270.808 261.975,271.308 262.5,272C 257.798,275.851 252.465,278.351 246.5,279.5C 245.527,281.948 245.194,284.615 245.5,287.5C 245.149,289.869 244.982,292.203 245,294.5C 246.526,291.422 249.026,289.588 252.5,289C 253.833,287.667 255.167,286.333 256.5,285C 257.635,284.251 258.635,284.417 259.5,285.5C 258.197,287.937 256.53,290.104 254.5,292C 249.983,294.555 245.316,296.388 240.5,297.5C 236.486,297.666 232.486,297.499 228.5,297C 226.129,294.294 223.463,291.961 220.5,290C 222.71,286.051 224.543,281.884 226,277.5C 230.59,274.247 233.59,269.914 235,264.5C 236.292,263.209 237.458,263.209 238.5,264.5 Z"/></g>
<g><path style="opacity:1" fill="#67391e" d="M 246.5,279.5 C 246.328,280.492 246.662,281.158 247.5,281.5C 247.5,282.5 247.5,283.5 247.5,284.5C 247.5,285.167 247.833,285.5 248.5,285.5C 248.068,286.71 247.401,287.71 246.5,288.5C 246.5,287.833 246.167,287.5 245.5,287.5C 245.194,284.615 245.527,281.948 246.5,279.5 Z"/></g>
<g><path style="opacity:1" fill="#e0b8a5" d="M 246.5,288.5 C 247.401,287.71 248.068,286.71 248.5,285.5C 252.756,284.428 256.422,282.261 259.5,279C 264.355,278.885 264.688,280.219 260.5,283C 256.558,282.937 253.558,284.603 251.5,288C 249.756,289.454 248.089,289.621 246.5,288.5 Z"/></g>
<g><path style="opacity:1" fill="#846d60" d="M 104.5,282.5 C 107.775,285.808 111.442,288.642 115.5,291C 117.464,292.451 118.797,294.284 119.5,296.5C 115.455,293.055 111.288,289.722 107,286.5C 106.601,286.728 106.435,287.062 106.5,287.5C 105.463,286.07 104.796,284.403 104.5,282.5 Z"/></g>
<g><path style="opacity:1" fill="#9b9892" d="M 136.5,268.5 C 138.594,273.202 139.927,278.202 140.5,283.5C 139.956,285.674 139.956,287.674 140.5,289.5C 139.867,292.732 138.867,295.732 137.5,298.5C 137.5,296.833 137.5,295.167 137.5,293.5C 137.774,288.737 137.441,284.07 136.5,279.5C 137.776,278.614 137.776,277.614 136.5,276.5C 129.193,272.791 129.193,270.125 136.5,268.5 Z"/></g>
<g><path style="opacity:1" fill="#d9d1c8" d="M 93.5,285.5 C 97.6874,287.76 102.021,289.76 106.5,291.5C 107.626,290.192 107.626,288.858 106.5,287.5C 106.435,287.062 106.601,286.728 107,286.5C 111.288,289.722 115.455,293.055 119.5,296.5C 120.605,298.153 120.771,299.82 120,301.5C 120.816,302.823 121.983,303.489 123.5,303.5C 126.086,309.709 125.086,309.876 120.5,304C 118.481,303.55 116.648,302.717 115,301.5C 113.644,302.38 112.144,302.714 110.5,302.5C 110.5,301.167 110.5,299.833 110.5,298.5C 107.873,299.092 105.206,299.425 102.5,299.5C 102.124,294.247 99.4578,290.747 94.5,289C 93.8333,288 93.1667,287 92.5,286C 92.7284,285.601 93.0618,285.435 93.5,285.5 Z"/></g>
<g><path style="opacity:1" fill="#dbd4ca" d="M 136.5,268.5 C 137.5,268.5 138.5,268.5 139.5,268.5C 140.916,270.179 142.25,271.846 143.5,273.5C 147.702,281.308 149.535,289.642 149,298.5C 148.617,299.056 148.117,299.389 147.5,299.5C 144.347,296.803 144.014,297.136 146.5,300.5C 142.859,302.644 139.692,305.311 137,308.5C 136.457,305.132 136.624,301.799 137.5,298.5C 138.867,295.732 139.867,292.732 140.5,289.5C 139.956,287.674 139.956,285.674 140.5,283.5C 139.927,278.202 138.594,273.202 136.5,268.5 Z"/></g>
<g><path style="opacity:1" fill="#1f1311" d="M 240.5,263.5 C 240.459,267.616 239.793,271.616 238.5,275.5C 242.913,275.147 247.246,274.314 251.5,273C 258.051,266.319 263.384,266.985 267.5,275C 263.904,288.426 255.238,296.593 241.5,299.5C 241.672,298.508 241.338,297.842 240.5,297.5C 245.316,296.388 249.983,294.555 254.5,292C 256.53,290.104 258.197,287.937 259.5,285.5C 258.635,284.417 257.635,284.251 256.5,285C 255.167,286.333 253.833,287.667 252.5,289C 249.026,289.588 246.526,291.422 245,294.5C 244.982,292.203 245.149,289.869 245.5,287.5C 246.167,287.5 246.5,287.833 246.5,288.5C 248.089,289.621 249.756,289.454 251.5,288C 253.558,284.603 256.558,282.937 260.5,283C 264.688,280.219 264.355,278.885 259.5,279C 256.422,282.261 252.756,284.428 248.5,285.5C 247.833,285.5 247.5,285.167 247.5,284.5C 251.753,283.432 255.42,281.265 258.5,278C 260.935,277.147 263.269,276.147 265.5,275C 264.975,274.308 264.308,273.808 263.5,273.5C 258.702,277.232 253.369,279.899 247.5,281.5C 246.662,281.158 246.328,280.492 246.5,279.5C 252.465,278.351 257.798,275.851 262.5,272C 261.975,271.308 261.308,270.808 260.5,270.5C 253.645,275.451 245.978,277.785 237.5,277.5C 237.722,280.39 237.055,283.057 235.5,285.5C 234.833,286.833 234.167,286.833 233.5,285.5C 234.95,278.451 236.617,271.451 238.5,264.5C 239.167,264.167 239.833,263.833 240.5,263.5 Z"/></g>
<g><path style="opacity:1" fill="#eac2b0" d="M 247.5,284.5 C 247.5,283.5 247.5,282.5 247.5,281.5C 253.369,279.899 258.702,277.232 263.5,273.5C 264.308,273.808 264.975,274.308 265.5,275C 263.269,276.147 260.935,277.147 258.5,278C 255.42,281.265 251.753,283.432 247.5,284.5 Z"/></g>
<g><path style="opacity:1" fill="#70878f" d="M 143.5,273.5 C 144.778,273.782 145.778,274.449 146.5,275.5C 147.148,277.086 147.648,278.753 148,280.5C 150.352,282.03 152.519,283.697 154.5,285.5C 153.325,285.281 152.325,285.614 151.5,286.5C 153.331,290.241 153.997,294.241 153.5,298.5C 152.295,302.97 150.961,307.303 149.5,311.5C 148.081,310.549 146.415,310.216 144.5,310.5C 145.218,314.877 147.885,317.21 152.5,317.5C 153.167,318.167 153.833,318.833 154.5,319.5C 152.5,319.5 150.5,319.5 148.5,319.5C 147.35,321.51 146.517,324.176 146,327.5C 145.226,323.853 144.559,320.186 144,316.5C 143.302,315.309 142.469,314.309 141.5,313.5C 143.187,308.827 145.187,304.16 147.5,299.5C 148.117,299.389 148.617,299.056 149,298.5C 149.535,289.642 147.702,281.308 143.5,273.5 Z"/></g>
<g><path style="opacity:1" fill="#7fa6b4" d="M 114.5,309.5 C 106.427,310.132 98.7605,309.465 91.5,307.5C 91.5,303.167 91.5,298.833 91.5,294.5C 91.281,293.325 91.6143,292.325 92.5,291.5C 96.6452,294.542 98.9785,298.542 99.5,303.5C 104.852,302.376 110.186,302.376 115.5,303.5C 115.48,305.143 116.147,306.476 117.5,307.5C 116.398,308.176 115.398,308.842 114.5,309.5 Z"/></g>
<g><path style="opacity:1" fill="#7b7874" d="M 137.5,293.5 C 137.5,295.167 137.5,296.833 137.5,298.5C 136.624,301.799 136.457,305.132 137,308.5C 139.692,305.311 142.859,302.644 146.5,300.5C 144.014,297.136 144.347,296.803 147.5,299.5C 145.187,304.16 143.187,308.827 141.5,313.5C 141.657,312.127 141.49,310.793 141,309.5C 140.329,310.252 139.496,310.586 138.5,310.5C 136.952,310.821 136.285,311.821 136.5,313.5C 136.167,313.5 135.833,313.5 135.5,313.5C 135.768,311.901 135.434,310.568 134.5,309.5C 134.801,305.055 135.301,300.388 136,295.5C 136.278,294.584 136.778,293.918 137.5,293.5 Z"/></g>
<g><path style="opacity:1" fill="#78a9bf" d="M 154.5,285.5 C 160.895,293.739 166.728,302.406 172,311.5C 176.239,314.696 178.906,318.696 180,323.5C 178.955,324.373 178.122,325.373 177.5,326.5C 176.761,326.631 176.094,326.464 175.5,326C 176.591,323.936 176.758,321.769 176,319.5C 174.742,321.764 173.575,324.098 172.5,326.5C 171.167,327.833 169.833,329.167 168.5,330.5C 167.676,327.215 167.176,323.882 167,320.5C 164.959,319.577 162.792,319.244 160.5,319.5C 160.827,314.786 160.493,310.12 159.5,305.5C 158.199,307.444 157.199,309.444 156.5,311.5C 155.034,310.653 154.2,309.32 154,307.5C 153.502,304.518 153.335,301.518 153.5,298.5C 153.997,294.241 153.331,290.241 151.5,286.5C 152.325,285.614 153.325,285.281 154.5,285.5 Z"/></g>
<g><path style="opacity:1" fill="#898b88" d="M 93.5,285.5 C 93.0618,285.435 92.7284,285.601 92.5,286C 93.1667,287 93.8333,288 94.5,289C 99.4578,290.747 102.124,294.247 102.5,299.5C 105.206,299.425 107.873,299.092 110.5,298.5C 110.5,299.833 110.5,301.167 110.5,302.5C 112.144,302.714 113.644,302.38 115,301.5C 116.648,302.717 118.481,303.55 120.5,304C 125.086,309.876 126.086,309.709 123.5,303.5C 123.56,302.957 123.893,302.624 124.5,302.5C 126.874,305.028 127.874,308.028 127.5,311.5C 126.504,311.586 125.671,311.252 125,310.5C 124.51,311.793 124.343,313.127 124.5,314.5C 123.566,313.432 123.232,312.099 123.5,310.5C 120.713,309.523 117.713,309.19 114.5,309.5C 115.398,308.842 116.398,308.176 117.5,307.5C 116.147,306.476 115.48,305.143 115.5,303.5C 110.186,302.376 104.852,302.376 99.5,303.5C 98.9785,298.542 96.6452,294.542 92.5,291.5C 91.6143,292.325 91.281,293.325 91.5,294.5C 90.8333,294.5 90.1667,294.5 89.5,294.5C 89.5,292.167 89.5,289.833 89.5,287.5C 87.8212,287.715 86.8212,287.048 86.5,285.5C 88.4918,285.672 90.1585,285.005 91.5,283.5C 92.5223,283.855 93.189,284.522 93.5,285.5 Z"/></g>
<g><path style="opacity:1" fill="#7fa1ab" d="M 149.5,311.5 C 149.5,312.833 149.5,314.167 149.5,315.5C 150.822,315.67 151.989,315.337 153,314.5C 153.47,315.577 153.303,316.577 152.5,317.5C 147.885,317.21 145.218,314.877 144.5,310.5C 146.415,310.216 148.081,310.549 149.5,311.5 Z"/></g>
<g><path style="opacity:1" fill="#5b7680" d="M 91.5,307.5 C 98.7605,309.465 106.427,310.132 114.5,309.5C 117.713,309.19 120.713,309.523 123.5,310.5C 116.8,310.705 110.133,311.039 103.5,311.5C 101.824,312.183 101.157,313.517 101.5,315.5C 100.566,314.432 100.232,313.099 100.5,311.5C 98.1667,311.5 95.8333,311.5 93.5,311.5C 93.2865,313.144 93.6198,314.644 94.5,316C 97.3106,316.911 100.144,317.744 103,318.5C 106.532,317.242 110.032,315.909 113.5,314.5C 113.833,315 114.167,315.5 114.5,316C 113.913,320.648 113.246,325.148 112.5,329.5C 112.57,325.575 111.903,321.909 110.5,318.5C 106.202,319.2 101.869,319.533 97.5,319.5C 95.4658,320.591 94.1324,322.257 93.5,324.5C 93.6198,320.958 93.2865,317.458 92.5,314C 92.3158,312.624 91.6491,311.791 90.5,311.5C 90.2322,309.901 90.5655,308.568 91.5,307.5 Z"/></g>
<g><path style="opacity:1" fill="#5b524e" d="M 124.5,320.5 C 124.5,321.5 124.5,322.5 124.5,323.5C 122.581,326.084 120.914,325.75 119.5,322.5C 120.668,320.783 122.335,320.116 124.5,320.5 Z"/></g>
<g><path style="opacity:1" fill="#f4f5f5" d="M 135.5,313.5 C 135.833,313.5 136.167,313.5 136.5,313.5C 137.756,341.489 138.756,369.489 139.5,397.5C 133.5,397.5 127.5,397.5 121.5,397.5C 123.665,369.86 125.498,342.193 127,314.5C 130.95,319.979 133.784,319.645 135.5,313.5 Z"/></g>
<g><path style="opacity:1" fill="#73a8bf" d="M 110.5,318.5 C 110.119,322.023 109.119,325.356 107.5,328.5C 108.167,329.167 108.833,329.833 109.5,330.5C 106.232,331.487 102.898,331.82 99.5,331.5C 98.201,327.63 97.5343,323.63 97.5,319.5C 101.869,319.533 106.202,319.2 110.5,318.5 Z"/></g>
<g><path style="opacity:1" fill="#79949c" d="M 110.5,318.5 C 111.903,321.909 112.57,325.575 112.5,329.5C 110.768,350.627 108.768,371.627 106.5,392.5C 110.913,393.706 115.246,394.706 119.5,395.5C 119.5,396.167 119.5,396.833 119.5,397.5C 110.5,397.5 101.5,397.5 92.5,397.5C 91.7659,396.292 91.4326,394.959 91.5,393.5C 94.1667,393.5 96.8333,393.5 99.5,393.5C 98.268,374.192 97.4347,354.859 97,335.5C 95.3415,332.023 94.1749,328.357 93.5,324.5C 94.1324,322.257 95.4658,320.591 97.5,319.5C 97.5343,323.63 98.201,327.63 99.5,331.5C 102.898,331.82 106.232,331.487 109.5,330.5C 108.833,329.833 108.167,329.167 107.5,328.5C 109.119,325.356 110.119,322.023 110.5,318.5 Z"/></g>
<g><path style="opacity:1" fill="#72a6bc" d="M 90.5,311.5 C 91.6491,311.791 92.3158,312.624 92.5,314C 93.2865,317.458 93.6198,320.958 93.5,324.5C 94.1749,328.357 95.3415,332.023 97,335.5C 97.4347,354.859 98.268,374.192 99.5,393.5C 96.8333,393.5 94.1667,393.5 91.5,393.5C 87.613,379.497 83.2796,365.497 78.5,351.5C 83.4378,338.408 87.4378,325.075 90.5,311.5 Z"/></g>
<g><path style="opacity:1" fill="#75a8be" d="M 86.5,285.5 C 86.8212,287.048 87.8212,287.715 89.5,287.5C 89.5,289.833 89.5,292.167 89.5,294.5C 87.5139,310.928 83.6806,326.928 78,342.5C 77.1668,345.6 75.6668,347.433 73.5,348C 79.6028,364.676 84.6028,381.176 88.5,397.5C 81.8333,397.5 75.1667,397.5 68.5,397.5C 64.5182,383.052 60.0182,368.719 55,354.5C 58.7608,330.788 64.4275,307.454 72,284.5C 73.6768,283.484 75.3435,282.484 77,281.5C 80.1349,282.986 83.3016,284.32 86.5,285.5 Z"/></g>
<g><path style="opacity:1" fill="#100e0f" d="M 240.5,263.5 C 239.833,263.833 239.167,264.167 238.5,264.5C 237.458,263.209 236.292,263.209 235,264.5C 233.59,269.914 230.59,274.247 226,277.5C 224.543,281.884 222.71,286.051 220.5,290C 223.463,291.961 226.129,294.294 228.5,297C 232.486,297.499 236.486,297.666 240.5,297.5C 241.338,297.842 241.672,298.508 241.5,299.5C 237.753,299.392 234.086,299.892 230.5,301C 231.517,302.049 231.684,303.216 231,304.5C 224.303,312.858 217.636,321.191 211,329.5C 203.833,338 196,345.833 187.5,353C 183.375,353.854 179.375,353.52 175.5,352C 170.554,347.054 165.554,342.054 160.5,337C 159.668,336.312 159.002,336.479 158.5,337.5C 157.197,339.968 155.697,342.301 154,344.5C 153.833,347.5 153.667,350.5 153.5,353.5C 154.324,368.188 155.324,382.854 156.5,397.5C 155.167,397.5 153.833,397.5 152.5,397.5C 153.043,396.258 153.377,394.925 153.5,393.5C 151.148,376.57 150.314,359.57 151,342.5C 157.803,335.638 158.97,327.971 154.5,319.5C 153.833,318.833 153.167,318.167 152.5,317.5C 153.303,316.577 153.47,315.577 153,314.5C 151.989,315.337 150.822,315.67 149.5,315.5C 149.5,314.167 149.5,312.833 149.5,311.5C 150.961,307.303 152.295,302.97 153.5,298.5C 153.335,301.518 153.502,304.518 154,307.5C 154.2,309.32 155.034,310.653 156.5,311.5C 157.479,318.273 158.979,324.94 161,331.5C 164.699,336.027 168.532,340.361 172.5,344.5C 176.652,350.526 181.985,351.859 188.5,348.5C 198.283,339.553 206.783,329.553 214,318.5C 215.378,316.787 217.045,315.453 219,314.5C 222.066,310.278 224.899,305.944 227.5,301.5C 224.484,295.005 219.484,291.505 212.5,291C 201.795,303.553 190.961,316.053 180,328.5C 178.333,331.167 176.667,333.833 175,336.5C 174.536,335.906 174.369,335.239 174.5,334.5C 175.108,331.673 176.108,329.007 177.5,326.5C 178.122,325.373 178.955,324.373 180,323.5C 178.906,318.696 176.239,314.696 172,311.5C 166.728,302.406 160.895,293.739 154.5,285.5C 152.519,283.697 150.352,282.03 148,280.5C 147.648,278.753 147.148,277.086 146.5,275.5C 147.675,275.719 148.675,275.386 149.5,274.5C 150.921,271.991 152.588,269.657 154.5,267.5C 154.896,271.263 155.896,274.597 157.5,277.5C 158.496,277.586 159.329,277.252 160,276.5C 160.368,277.91 161.201,278.91 162.5,279.5C 164.156,276.982 165.489,276.982 166.5,279.5C 164.372,282.13 162.039,284.63 159.5,287C 167.378,297.922 175.378,308.756 183.5,319.5C 192.5,309 201.5,298.5 210.5,288C 212.441,287.257 214.274,287.424 216,288.5C 217.667,287.167 219.333,285.833 221,284.5C 221.438,281.624 222.438,278.957 224,276.5C 228.626,272.078 232.126,266.911 234.5,261C 237.294,260.028 239.294,260.861 240.5,263.5 Z"/></g>
<g><path style="opacity:1" fill="#648fa1" d="M 177.5,326.5 C 176.108,329.007 175.108,331.673 174.5,334.5C 173.053,335.622 172.053,337.122 171.5,339C 172.406,340.699 172.739,342.533 172.5,344.5C 168.532,340.361 164.699,336.027 161,331.5C 158.979,324.94 157.479,318.273 156.5,311.5C 157.199,309.444 158.199,307.444 159.5,305.5C 160.493,310.12 160.827,314.786 160.5,319.5C 162.792,319.244 164.959,319.577 167,320.5C 167.176,323.882 167.676,327.215 168.5,330.5C 169.833,329.167 171.167,327.833 172.5,326.5C 173.575,324.098 174.742,321.764 176,319.5C 176.758,321.769 176.591,323.936 175.5,326C 176.094,326.464 176.761,326.631 177.5,326.5 Z"/></g>
<g><path style="opacity:1" fill="#75a7bc" d="M 172.5,344.5 C 172.739,342.533 172.406,340.699 171.5,339C 172.053,337.122 173.053,335.622 174.5,334.5C 174.369,335.239 174.536,335.906 175,336.5C 176.667,333.833 178.333,331.167 180,328.5C 190.961,316.053 201.795,303.553 212.5,291C 219.484,291.505 224.484,295.005 227.5,301.5C 224.899,305.944 222.066,310.278 219,314.5C 217.045,315.453 215.378,316.787 214,318.5C 206.783,329.553 198.283,339.553 188.5,348.5C 181.985,351.859 176.652,350.526 172.5,344.5 Z"/></g>
<g><path style="opacity:1" fill="#d7d2ce" d="M 156.5,280.5 C 158.646,280.696 158.812,281.696 157,283.5C 155.272,282.648 155.105,281.648 156.5,280.5 Z"/></g>
<g><path style="opacity:1" fill="#70a6bd" d="M 99.5,333.5 C 102.415,333.746 105.415,334.079 108.5,334.5C 107.327,354.235 105.327,373.902 102.5,393.5C 101.595,373.486 100.595,353.486 99.5,333.5 Z"/></g>
<g><path style="opacity:1" fill="#574843" d="M 124.5,336.5 C 124.552,338.903 124.219,341.236 123.5,343.5C 120.099,344.773 118.766,343.44 119.5,339.5C 120.833,339.5 122.167,339.5 123.5,339.5C 123.263,338.209 123.596,337.209 124.5,336.5 Z"/></g>
<g><path style="opacity:1" fill="#779ca9" d="M 141.5,313.5 C 142.469,314.309 143.302,315.309 144,316.5C 144.559,320.186 145.226,323.853 146,327.5C 146.517,324.176 147.35,321.51 148.5,319.5C 150.5,319.5 152.5,319.5 154.5,319.5C 158.97,327.971 157.803,335.638 151,342.5C 150.314,359.57 151.148,376.57 153.5,393.5C 153.377,394.925 153.043,396.258 152.5,397.5C 148.833,397.5 145.167,397.5 141.5,397.5C 141.5,392.5 141.5,387.5 141.5,382.5C 142.209,381.596 143.209,381.263 144.5,381.5C 144.29,378.735 142.957,376.735 140.5,375.5C 140.334,370.821 140.501,366.155 141,361.5C 142.131,362.604 142.965,362.271 143.5,360.5C 142.311,359.571 140.978,359.238 139.5,359.5C 139.373,343.161 139.04,326.828 138.5,310.5C 139.496,310.586 140.329,310.252 141,309.5C 141.49,310.793 141.657,312.127 141.5,313.5 Z"/></g>
<g><path style="opacity:1" fill="#0b0b0e" d="M 89.5,294.5 C 90.1667,294.5 90.8333,294.5 91.5,294.5C 91.5,298.833 91.5,303.167 91.5,307.5C 90.5655,308.568 90.2322,309.901 90.5,311.5C 87.4378,325.075 83.4378,338.408 78.5,351.5C 83.2796,365.497 87.613,379.497 91.5,393.5C 91.4326,394.959 91.7659,396.292 92.5,397.5C 91.1667,397.5 89.8333,397.5 88.5,397.5C 84.6028,381.176 79.6028,364.676 73.5,348C 75.6668,347.433 77.1668,345.6 78,342.5C 83.6806,326.928 87.5139,310.928 89.5,294.5 Z"/></g>
<g><path style="opacity:1" fill="#161415" d="M 134.5,309.5 C 135.434,310.568 135.768,311.901 135.5,313.5C 133.784,319.645 130.95,319.979 127,314.5C 125.498,342.193 123.665,369.86 121.5,397.5C 120.833,397.5 120.167,397.5 119.5,397.5C 119.5,396.833 119.5,396.167 119.5,395.5C 120.597,390.679 120.597,386.013 119.5,381.5C 120.6,380.395 121.267,379.062 121.5,377.5C 121.5,374.167 121.5,370.833 121.5,367.5C 122.477,364.713 122.81,361.713 122.5,358.5C 123.254,353.537 123.587,348.537 123.5,343.5C 124.219,341.236 124.552,338.903 124.5,336.5C 124.5,332.167 124.5,327.833 124.5,323.5C 124.5,322.5 124.5,321.5 124.5,320.5C 124.5,318.5 124.5,316.5 124.5,314.5C 124.343,313.127 124.51,311.793 125,310.5C 125.671,311.252 126.504,311.586 127.5,311.5C 131.308,317.111 133.641,316.445 134.5,309.5 Z"/></g>
<g><path style="opacity:1" fill="#726d67" d="M 122.5,358.5 C 122.81,361.713 122.477,364.713 121.5,367.5C 121.5,366.167 121.5,364.833 121.5,363.5C 120.127,363.657 118.793,363.49 117.5,363C 118.641,362.259 118.641,361.425 117.5,360.5C 118.532,357.807 120.198,357.14 122.5,358.5 Z"/></g>
<g><path style="opacity:1" fill="#79a9bd" d="M 123.5,310.5 C 123.232,312.099 123.566,313.432 124.5,314.5C 124.5,316.5 124.5,318.5 124.5,320.5C 122.335,320.116 120.668,320.783 119.5,322.5C 120.914,325.75 122.581,326.084 124.5,323.5C 124.5,327.833 124.5,332.167 124.5,336.5C 123.596,337.209 123.263,338.209 123.5,339.5C 122.167,339.5 120.833,339.5 119.5,339.5C 118.766,343.44 120.099,344.773 123.5,343.5C 123.587,348.537 123.254,353.537 122.5,358.5C 120.198,357.14 118.532,357.807 117.5,360.5C 118.641,361.425 118.641,362.259 117.5,363C 118.793,363.49 120.127,363.657 121.5,363.5C 121.5,364.833 121.5,366.167 121.5,367.5C 121.5,370.833 121.5,374.167 121.5,377.5C 119.833,377.5 118.167,377.5 116.5,377.5C 116.5,378.833 116.5,380.167 116.5,381.5C 117.5,381.5 118.5,381.5 119.5,381.5C 120.597,386.013 120.597,390.679 119.5,395.5C 115.246,394.706 110.913,393.706 106.5,392.5C 108.768,371.627 110.768,350.627 112.5,329.5C 113.246,325.148 113.913,320.648 114.5,316C 114.167,315.5 113.833,315 113.5,314.5C 110.032,315.909 106.532,317.242 103,318.5C 100.144,317.744 97.3106,316.911 94.5,316C 93.6198,314.644 93.2865,313.144 93.5,311.5C 95.8333,311.5 98.1667,311.5 100.5,311.5C 100.232,313.099 100.566,314.432 101.5,315.5C 102.397,316.598 103.23,316.598 104,315.5C 104.579,314.072 104.412,312.738 103.5,311.5C 110.133,311.039 116.8,310.705 123.5,310.5 Z"/></g>
<g><path style="opacity:1" fill="#73503a" d="M 103.5,311.5 C 104.412,312.738 104.579,314.072 104,315.5C 103.23,316.598 102.397,316.598 101.5,315.5C 101.157,313.517 101.824,312.183 103.5,311.5 Z"/></g>
<g><path style="opacity:1" fill="#64544b" d="M 121.5,377.5 C 121.267,379.062 120.6,380.395 119.5,381.5C 118.5,381.5 117.5,381.5 116.5,381.5C 116.5,380.167 116.5,378.833 116.5,377.5C 118.167,377.5 119.833,377.5 121.5,377.5 Z"/></g>
<g><path style="opacity:1" fill="#141113" d="M 138.5,310.5 C 139.04,326.828 139.373,343.161 139.5,359.5C 140.978,359.238 142.311,359.571 143.5,360.5C 142.965,362.271 142.131,362.604 141,361.5C 140.501,366.155 140.334,370.821 140.5,375.5C 140.198,378.059 140.532,380.393 141.5,382.5C 141.5,387.5 141.5,392.5 141.5,397.5C 140.833,397.5 140.167,397.5 139.5,397.5C 138.756,369.489 137.756,341.489 136.5,313.5C 136.285,311.821 136.952,310.821 138.5,310.5 Z"/></g>
<g><path style="opacity:1" fill="#565e62" d="M 140.5,375.5 C 142.957,376.735 144.29,378.735 144.5,381.5C 143.209,381.263 142.209,381.596 141.5,382.5C 140.532,380.393 140.198,378.059 140.5,375.5 Z"/></g>
</svg>
